# Blender v2.63 (sub 0) OBJ File: ''
# www.blender.org
mtllib av_table.mtl
o Mesh.001_avatar_table_mesh
v 0.000000 3.500000 0.000001
v 0.095671 3.500000 -0.230969
v 0.000000 3.500000 -0.249999
v 0.000000 -4.000000 -0.000001
v 0.000000 -4.000000 -1.000001
v 0.382683 -4.000000 -0.923881
v 0.176777 3.500000 -0.176779
v 0.707107 -4.000000 -0.707111
v 0.230970 3.500000 -0.095669
v 0.923880 -4.000000 -0.382681
v 0.250000 3.500000 0.000001
v 1.000000 -4.000000 -0.000001
v 0.230970 3.500000 0.095671
v 0.923880 -4.000000 0.382679
v 0.176777 3.500000 0.176781
v 0.707107 -4.000000 0.707109
v 0.095671 3.500000 0.230971
v 0.382683 -4.000000 0.923879
v 0.000000 3.500000 0.250001
v 0.000000 -4.000000 0.999999
v -0.095671 3.500000 0.230971
v -0.382683 -4.000000 0.923879
v -0.176777 3.500000 0.176781
v -0.707107 -4.000000 0.707109
v -0.230970 3.500000 0.095671
v -0.923880 -4.000000 0.382679
v -0.250000 3.500000 0.000001
v -1.000000 -4.000000 -0.000001
v -0.230970 3.500000 -0.095669
v -0.923879 -4.000000 -0.382681
v -0.176777 3.500000 -0.176779
v -0.707107 -4.000000 -0.707111
v -0.095671 3.500000 -0.230969
v -0.382683 -4.000000 -0.923881
v -3.000001 3.499998 11.000001
v 3.000000 3.500002 -10.999999
v 2.999999 3.499998 11.000001
v -3.000000 3.500002 -10.999999
v -3.000001 3.999998 11.000001
v 2.999999 3.999998 11.000001
v 3.000000 4.000002 -10.999999
v -3.000000 4.000002 -10.999999
vn 0.000000 1.000000 -0.000000
vn 0.000000 -1.000000 -0.000000
vn 0.194158 0.097610 -0.976102
vn 0.194157 0.097610 -0.976102
vn 0.552912 0.097610 -0.827503
vn 0.552894 0.097610 -0.827515
vn 0.827504 0.097610 -0.552910
vn 0.827513 0.097611 -0.552896
vn 0.976102 0.097610 -0.194159
vn 0.976102 0.097610 0.194159
vn 0.827504 0.097610 0.552910
vn 0.827513 0.097610 0.552896
vn 0.552912 0.097610 0.827503
vn 0.552894 0.097611 0.827515
vn 0.194158 0.097610 0.976102
vn 0.194157 0.097610 0.976102
vn -0.194158 0.097610 0.976102
vn -0.194157 0.097610 0.976102
vn -0.552912 0.097610 0.827503
vn -0.552894 0.097609 0.827515
vn -0.827504 0.097610 0.552910
vn -0.827513 0.097610 0.552896
vn -0.976102 0.097610 0.194159
vn -0.976101 0.097610 -0.194162
vn -0.976102 0.097610 -0.194159
vn -0.827505 0.097610 -0.552908
vn -0.827513 0.097610 -0.552896
vn -0.552912 0.097610 -0.827503
vn -0.552894 0.097611 -0.827515
vn -0.194158 0.097610 -0.976102
vn -0.194157 0.097610 -0.976102
vn -1.000000 0.000000 -0.000000
vn 1.000000 -0.000000 0.000000
vn 0.000000 -0.000000 1.000000
vn 0.000000 0.000000 -1.000000
usemtl 
s off
f 1//1 2//1 3//1
f 4//2 5//2 6//2
f 3//3 6//3 5//3
f 3//4 2//4 6//4
f 1//1 7//1 2//1
f 4//2 6//2 8//2
f 2//5 8//5 6//5
f 2//6 7//6 8//6
f 1//1 9//1 7//1
f 4//2 8//2 10//2
f 7//7 10//7 8//7
f 7//8 9//8 10//8
f 1//1 11//1 9//1
f 4//2 10//2 12//2
f 9//9 12//9 10//9
f 9//9 11//9 12//9
f 1//1 13//1 11//1
f 4//2 12//2 14//2
f 11//10 14//10 12//10
f 11//10 13//10 14//10
f 1//1 15//1 13//1
f 4//2 14//2 16//2
f 13//11 16//11 14//11
f 13//12 15//12 16//12
f 1//1 17//1 15//1
f 4//2 16//2 18//2
f 15//13 18//13 16//13
f 15//14 17//14 18//14
f 1//1 19//1 17//1
f 4//2 18//2 20//2
f 17//15 20//15 18//15
f 17//16 19//16 20//16
f 1//1 21//1 19//1
f 4//2 20//2 22//2
f 19//17 22//17 20//17
f 19//18 21//18 22//18
f 1//1 23//1 21//1
f 4//2 22//2 24//2
f 21//19 24//19 22//19
f 21//20 23//20 24//20
f 1//1 25//1 23//1
f 4//2 24//2 26//2
f 23//21 26//21 24//21
f 23//22 25//22 26//22
f 1//1 27//1 25//1
f 4//2 26//2 28//2
f 25//23 28//23 26//23
f 25//23 27//23 28//23
f 1//1 29//1 27//1
f 4//2 28//2 30//2
f 27//24 30//24 28//24
f 27//25 29//25 30//25
f 1//1 31//1 29//1
f 4//2 30//2 32//2
f 29//26 32//26 30//26
f 29//27 31//27 32//27
f 1//1 33//1 31//1
f 4//2 32//2 34//2
f 31//28 34//28 32//28
f 31//29 33//29 34//29
f 1//1 3//1 33//1
f 4//2 34//2 5//2
f 33//30 5//30 34//30
f 33//31 3//31 5//31
f 35//2 36//2 37//2
f 35//2 38//2 36//2
f 39//1 40//1 41//1
f 39//1 41//1 42//1
f 39//32 38//32 35//32
f 39//32 42//32 38//32
f 40//33 37//33 36//33
f 40//33 36//33 41//33
f 39//34 35//34 37//34
f 39//34 37//34 40//34
f 42//35 36//35 38//35
f 42//35 41//35 36//35
