# Blender v2.63 (sub 0) OBJ File: ''
# www.blender.org
o avatar_pivot_point
v 0.042552 6.519690 3.776655
vn 0.000000 0.000000 0.000000
s off
f 1//1 1//1 1//1
o avatar_table_mesh
v 0.000000 -0.000001 3.500000
v 0.095671 0.230969 3.500000
v 0.000000 0.249999 3.500000
v 0.000000 0.000001 -4.000000
v 0.000000 1.000001 -4.000000
v 0.382683 0.923881 -4.000000
v 0.176777 0.176779 3.500000
v 0.707107 0.707111 -4.000000
v 0.230970 0.095669 3.500000
v 0.923880 0.382681 -4.000000
v 0.250000 -0.000001 3.500000
v 1.000000 0.000001 -4.000000
v 0.230970 -0.095671 3.500000
v 0.923880 -0.382679 -4.000000
v 0.176777 -0.176781 3.500000
v 0.707107 -0.707109 -4.000000
v 0.095671 -0.230971 3.500000
v 0.382683 -0.923879 -4.000000
v 0.000000 -0.250001 3.500000
v 0.000000 -0.999999 -4.000000
v -0.095671 -0.230971 3.500000
v -0.382683 -0.923879 -4.000000
v -0.176777 -0.176781 3.500000
v -0.707107 -0.707109 -4.000000
v -0.230970 -0.095671 3.500000
v -0.923880 -0.382679 -4.000000
v -0.250000 -0.000001 3.500000
v -1.000000 0.000001 -4.000000
v -0.230970 0.095669 3.500000
v -0.923879 0.382681 -4.000000
v -0.176777 0.176779 3.500000
v -0.707107 0.707111 -4.000000
v -0.095671 0.230969 3.500000
v -0.382683 0.923881 -4.000000
v -3.000001 -11.000001 3.499998
v 3.000000 10.999999 3.500002
v 2.999999 -11.000001 3.499998
v -3.000000 10.999999 3.500002
v -3.000001 -11.000001 3.999998
v 2.999999 -11.000001 3.999998
v 3.000000 10.999999 4.000002
v -3.000000 10.999999 4.000002
vn 0.000000 0.000000 1.000000
vn 0.000000 0.000000 -1.000000
vn 0.194158 0.976102 0.097610
vn 0.194157 0.976102 0.097610
vn 0.552912 0.827503 0.097610
vn 0.552894 0.827515 0.097610
vn 0.827504 0.552910 0.097610
vn 0.827513 0.552896 0.097611
vn 0.976102 0.194159 0.097610
vn 0.976102 -0.194159 0.097610
vn 0.827504 -0.552910 0.097610
vn 0.827513 -0.552896 0.097610
vn 0.552912 -0.827503 0.097610
vn 0.552894 -0.827515 0.097611
vn 0.194158 -0.976102 0.097610
vn 0.194157 -0.976102 0.097610
vn -0.194158 -0.976102 0.097610
vn -0.194157 -0.976102 0.097610
vn -0.552912 -0.827503 0.097610
vn -0.552894 -0.827515 0.097609
vn -0.827504 -0.552910 0.097610
vn -0.827513 -0.552896 0.097610
vn -0.976102 -0.194159 0.097610
vn -0.976101 0.194162 0.097610
vn -0.976102 0.194159 0.097610
vn -0.827505 0.552908 0.097610
vn -0.827513 0.552896 0.097610
vn -0.552912 0.827503 0.097610
vn -0.552894 0.827515 0.097611
vn -0.194158 0.976102 0.097610
vn -0.194157 0.976102 0.097610
vn -1.000000 0.000000 0.000000
vn 1.000000 -0.000000 0.000000
vn 0.000000 -1.000000 0.000000
vn 0.000000 1.000000 -0.000000
s off
f 2//2 3//2 4//2
f 5//3 6//3 7//3
f 4//4 7//4 6//4
f 4//5 3//5 7//5
f 2//2 8//2 3//2
f 5//3 7//3 9//3
f 3//6 9//6 7//6
f 3//7 8//7 9//7
f 2//2 10//2 8//2
f 5//3 9//3 11//3
f 8//8 11//8 9//8
f 8//9 10//9 11//9
f 2//2 12//2 10//2
f 5//3 11//3 13//3
f 10//10 13//10 11//10
f 10//10 12//10 13//10
f 2//2 14//2 12//2
f 5//3 13//3 15//3
f 12//11 15//11 13//11
f 12//11 14//11 15//11
f 2//2 16//2 14//2
f 5//3 15//3 17//3
f 14//12 17//12 15//12
f 14//13 16//13 17//13
f 2//2 18//2 16//2
f 5//3 17//3 19//3
f 16//14 19//14 17//14
f 16//15 18//15 19//15
f 2//2 20//2 18//2
f 5//3 19//3 21//3
f 18//16 21//16 19//16
f 18//17 20//17 21//17
f 2//2 22//2 20//2
f 5//3 21//3 23//3
f 20//18 23//18 21//18
f 20//19 22//19 23//19
f 2//2 24//2 22//2
f 5//3 23//3 25//3
f 22//20 25//20 23//20
f 22//21 24//21 25//21
f 2//2 26//2 24//2
f 5//3 25//3 27//3
f 24//22 27//22 25//22
f 24//23 26//23 27//23
f 2//2 28//2 26//2
f 5//3 27//3 29//3
f 26//24 29//24 27//24
f 26//24 28//24 29//24
f 2//2 30//2 28//2
f 5//3 29//3 31//3
f 28//25 31//25 29//25
f 28//26 30//26 31//26
f 2//2 32//2 30//2
f 5//3 31//3 33//3
f 30//27 33//27 31//27
f 30//28 32//28 33//28
f 2//2 34//2 32//2
f 5//3 33//3 35//3
f 32//29 35//29 33//29
f 32//30 34//30 35//30
f 2//2 4//2 34//2
f 5//3 35//3 6//3
f 34//31 6//31 35//31
f 34//32 4//32 6//32
f 36//3 37//3 38//3
f 36//3 39//3 37//3
f 40//2 41//2 42//2
f 40//2 42//2 43//2
f 40//33 39//33 36//33
f 40//33 43//33 39//33
f 41//34 38//34 37//34
f 41//34 37//34 42//34
f 40//35 36//35 38//35
f 40//35 38//35 41//35
f 43//36 37//36 39//36
f 43//36 42//36 37//36
o avatar_carm_mesh
v 0.000000 6.600000 -0.299999
v -0.478354 5.445150 -0.299999
v 0.000000 5.350000 -0.299999
v 0.000000 6.600000 -3.299999
v 0.000000 5.100000 -3.299999
v -0.574025 5.214180 -3.299999
v -0.883883 5.716120 -0.299999
v -1.060660 5.539340 -3.299999
v -1.154850 6.121650 -0.299999
v -1.385821 6.025970 -3.299999
v -1.250000 6.600000 -0.299999
v -1.500000 6.600000 -3.299999
v -1.154850 7.078350 -0.299999
v -1.385821 7.174030 -3.299999
v -0.883883 7.483880 -0.299999
v -1.060660 7.660660 -3.299999
v -0.478354 7.754850 -0.299999
v -0.574025 7.985820 -3.299999
v 0.000000 7.850000 -0.299999
v 0.000000 8.100001 -3.299999
v 0.478354 7.754850 -0.299999
v 0.574024 7.985820 -3.299999
v 0.883884 7.483881 -0.299999
v 1.060660 7.660660 -3.299999
v 1.154850 7.078351 -0.299999
v 1.385820 7.174020 -3.299999
v 1.250000 6.600000 -0.299999
v 1.500000 6.600000 -3.299999
v 1.154850 6.121650 -0.299999
v 1.385820 6.025970 -3.299999
v 0.883883 5.716120 -0.299999
v 1.060660 5.539340 -3.299999
v 0.478354 5.445150 -0.299999
v 0.574025 5.214180 -3.299999
v -1.000000 10.599998 9.200002
v 1.000000 8.599998 9.200001
v 1.000000 10.599998 9.200002
v -1.000000 8.599998 9.200001
v -1.000000 10.599999 8.200002
v 1.000000 10.599999 8.200002
v 1.000000 8.599999 8.200001
v -1.000000 8.599999 8.200001
v 1.500000 8.599999 7.950001
v -1.500000 4.599998 7.950001
v -1.500000 8.599999 7.950001
v 1.500000 4.599998 7.950001
v 1.500000 8.599998 9.450001
v -1.500000 8.599998 9.450001
v -1.499999 4.599998 9.450001
v 1.500001 4.599998 9.450001
v -1.000000 10.599998 9.200002
v 1.000000 10.599998 9.200002
v 1.000000 11.770538 9.084712
v -1.000000 11.770538 9.084712
v -1.000000 10.599999 8.200002
v 1.000000 11.575452 8.103932
v 1.000000 10.599999 8.200002
v -1.000000 11.575452 8.103932
v 1.000000 12.896099 8.743282
v -1.000000 12.896099 8.743282
v 1.000000 12.513419 7.819402
v -1.000000 12.513419 7.819402
v 1.000000 13.933419 8.188822
v -1.000000 13.933419 8.188822
v 1.000000 13.377850 7.357352
v -1.000000 13.377850 7.357352
v 1.000000 14.842640 7.442642
v -1.000000 14.842639 7.442642
v 1.000000 14.135530 6.735532
v -1.000000 14.135530 6.735532
v 1.000000 15.588820 6.533422
v -1.000000 15.588820 6.533422
v 1.000000 14.757350 5.977852
v -1.000000 14.757349 5.977852
v 1.000000 16.143280 5.496103
v -1.000000 16.143280 5.496103
v 1.000000 15.219399 5.113422
v -1.000000 15.219399 5.113422
v 1.000000 16.484711 4.370543
v -1.000000 16.484711 4.370543
v 1.000000 15.503930 4.175455
v -1.000000 15.503929 4.175455
v 1.000000 16.600000 3.200002
v -1.000000 16.600000 3.200003
v 1.000000 15.599999 3.200003
v -1.000000 15.599999 3.200003
v 1.000000 16.484711 2.029463
v -1.000000 16.484711 2.029463
v 1.000000 15.503931 2.224551
v -1.000000 15.503930 2.224551
v 1.000000 16.143280 0.903903
v -1.000000 16.143280 0.903903
v 1.000000 15.219400 1.286582
v -1.000000 15.219400 1.286582
v 1.000000 15.588820 -0.133417
v -1.000000 15.588820 -0.133417
v 1.000000 14.757351 0.422152
v -1.000000 14.757350 0.422152
v 1.000000 14.842641 -1.042638
v -1.000000 14.842640 -1.042638
v 1.000000 14.135530 -0.335528
v -1.000000 14.135530 -0.335528
v 1.000000 13.933420 -1.788818
v -1.000000 13.933420 -1.788818
v 1.000000 13.377851 -0.957348
v -1.000000 13.377851 -0.957348
v 1.000000 12.896100 -2.343278
v -1.000000 12.896100 -2.343278
v 1.000000 12.513420 -1.419398
v -1.000000 12.513420 -1.419398
v 1.000000 11.770540 -2.684708
v -1.000000 11.770540 -2.684708
v 1.000000 11.575453 -1.703928
v -1.000000 11.575453 -1.703928
v 1.000000 10.600000 -2.799998
v -1.000000 10.600000 -2.799998
v 1.000000 10.600000 -1.799998
v -1.000000 10.600000 -1.799998
v -1.000000 10.600000 -2.799998
v 1.000000 10.600000 -2.799998
v 1.000000 6.600000 -2.799999
v -1.000000 6.600000 -2.799999
v -1.000000 10.600000 -1.799998
v 1.000000 6.600000 -1.799999
v 1.000000 10.600000 -1.799998
v -1.000000 6.600000 -1.799999
vn -0.194441 -0.977526 0.081460
vn -0.553725 -0.828706 0.081460
vn -0.553730 -0.828702 0.081461
vn -0.828702 -0.553730 0.081461
vn -0.828706 -0.553724 0.081462
vn -0.977526 -0.194438 0.081461
vn -0.977526 -0.194443 0.081460
vn -0.977527 0.194438 0.081461
vn -0.977526 0.194442 0.081461
vn -0.828702 0.553730 0.081462
vn -0.828706 0.553725 0.081461
vn -0.553725 0.828706 0.081462
vn -0.553730 0.828702 0.081461
vn -0.194443 0.977526 0.081461
vn -0.194441 0.977526 0.081461
vn 0.194443 0.977526 0.081461
vn 0.194441 0.977526 0.081461
vn 0.553724 0.828706 0.081460
vn 0.553727 0.828704 0.081461
vn 0.828708 0.553721 0.081461
vn 0.828707 0.553723 0.081460
vn 0.977526 0.194442 0.081460
vn 0.977526 0.194442 0.081461
vn 0.977526 -0.194439 0.081460
vn 0.977526 -0.194443 0.081461
vn 0.828703 -0.553729 0.081462
vn 0.828706 -0.553724 0.081461
vn 0.553725 -0.828706 0.081461
vn 0.553730 -0.828702 0.081460
vn 0.194441 -0.977526 0.081460
vn 0.000000 1.000000 0.000001
vn 0.000000 -1.000000 -0.000001
vn 1.000000 0.000000 -0.000001
vn -1.000000 -0.000000 0.000001
vn 0.000000 0.098018 0.995185
vn 0.000000 -0.098013 -0.995185
vn 0.000000 0.290280 0.956942
vn 0.000000 -0.290286 -0.956940
vn 0.000000 0.471398 0.881921
vn 0.000000 -0.471398 -0.881920
vn 0.000000 0.634394 0.773010
vn 0.000000 -0.634398 -0.773006
vn -0.000000 0.773010 0.634394
vn -0.000000 0.773009 0.634395
vn 0.000000 -0.773006 -0.634399
vn 0.000000 -0.773007 -0.634398
vn 0.000000 0.881921 0.471398
vn 0.000000 -0.881920 -0.471398
vn -0.000000 -0.881920 -0.471399
vn 0.000000 0.956941 0.290281
vn 0.000000 -0.956940 -0.290286
vn 0.000000 -0.956940 -0.290285
vn 0.000000 0.995185 0.098018
vn 0.000000 -0.995185 -0.098013
vn -0.000000 -0.995185 -0.098014
vn -0.000000 0.995185 -0.098019
vn 0.000000 0.995185 -0.098018
vn 0.000000 -0.995185 0.098012
vn 0.000000 -0.995185 0.098013
vn 0.000000 0.956941 -0.290281
vn 0.000000 -0.956940 0.290286
vn 0.000000 -0.956940 0.290285
vn 0.000000 0.881921 -0.471397
vn 0.000000 -0.881920 0.471398
vn 0.000000 -0.881920 0.471399
vn 0.000000 0.773010 -0.634394
vn -0.000000 0.773009 -0.634395
vn 0.000000 -0.773006 0.634398
vn 0.000000 -0.773007 0.634398
vn -0.000000 0.634394 -0.773010
vn 0.000000 0.634395 -0.773009
vn 0.000000 -0.634398 0.773006
vn 0.000000 0.471397 -0.881921
vn 0.000000 -0.471399 0.881920
vn 0.000000 0.290281 -0.956941
vn 0.000000 -0.290285 0.956940
vn 0.000000 0.098019 -0.995185
vn 0.000000 -0.098014 0.995185
s off
f 44//2 45//2 46//2
f 47//3 48//3 49//3
f 46//37 49//37 48//37
f 46//37 45//37 49//37
f 44//2 50//2 45//2
f 47//3 49//3 51//3
f 45//38 51//38 49//38
f 45//39 50//39 51//39
f 44//2 52//2 50//2
f 47//3 51//3 53//3
f 50//40 53//40 51//40
f 50//41 52//41 53//41
f 44//2 54//2 52//2
f 47//3 53//3 55//3
f 52//42 55//42 53//42
f 52//43 54//43 55//43
f 44//2 56//2 54//2
f 47//3 55//3 57//3
f 54//44 57//44 55//44
f 54//45 56//45 57//45
f 44//2 58//2 56//2
f 47//3 57//3 59//3
f 56//46 59//46 57//46
f 56//47 58//47 59//47
f 44//2 60//2 58//2
f 47//3 59//3 61//3
f 58//48 61//48 59//48
f 58//49 60//49 61//49
f 44//2 62//2 60//2
f 47//3 61//3 63//3
f 60//50 63//50 61//50
f 60//51 62//51 63//51
f 44//2 64//2 62//2
f 47//3 63//3 65//3
f 62//52 65//52 63//52
f 62//53 64//53 65//53
f 44//2 66//2 64//2
f 47//3 65//3 67//3
f 64//54 67//54 65//54
f 64//55 66//55 67//55
f 44//2 68//2 66//2
f 47//3 67//3 69//3
f 66//56 69//56 67//56
f 66//57 68//57 69//57
f 44//2 70//2 68//2
f 47//3 69//3 71//3
f 68//58 71//58 69//58
f 68//59 70//59 71//59
f 44//2 72//2 70//2
f 47//3 71//3 73//3
f 70//60 73//60 71//60
f 70//61 72//61 73//61
f 44//2 74//2 72//2
f 47//3 73//3 75//3
f 72//62 75//62 73//62
f 72//63 74//63 75//63
f 44//2 76//2 74//2
f 47//3 75//3 77//3
f 74//64 77//64 75//64
f 74//65 76//65 77//65
f 44//2 46//2 76//2
f 47//3 77//3 48//3
f 76//66 48//66 77//66
f 76//66 46//66 48//66
f 78//2 79//2 80//2
f 78//2 81//2 79//2
f 82//3 83//3 84//3
f 82//3 84//3 85//3
f 82//33 81//33 78//33
f 82//33 85//33 81//33
f 83//34 80//34 79//34
f 83//34 79//34 84//34
f 82//67 78//67 80//67
f 82//67 80//67 83//67
f 85//68 79//68 81//68
f 85//68 84//68 79//68
f 86//3 87//3 88//3
f 86//3 89//3 87//3
f 90//2 91//2 92//2
f 90//2 92//2 93//2
f 90//34 89//34 86//34
f 90//69 93//69 89//69
f 91//33 88//33 87//33
f 91//70 87//70 92//70
f 90//67 86//67 88//67
f 90//67 88//67 91//67
f 93//35 87//35 89//35
f 93//35 92//35 87//35
f 94//71 95//71 96//71
f 94//71 96//71 97//71
f 98//72 99//72 100//72
f 98//72 101//72 99//72
f 95//34 100//34 99//34
f 95//34 99//34 96//34
f 94//33 101//33 98//33
f 94//33 97//33 101//33
f 97//73 96//73 102//73
f 97//73 102//73 103//73
f 101//74 104//74 99//74
f 101//74 105//74 104//74
f 96//34 99//34 104//34
f 96//34 104//34 102//34
f 97//33 105//33 101//33
f 97//33 103//33 105//33
f 103//75 102//75 106//75
f 103//75 106//75 107//75
f 105//76 108//76 104//76
f 105//76 109//76 108//76
f 102//34 104//34 108//34
f 102//34 108//34 106//34
f 103//33 109//33 105//33
f 103//33 107//33 109//33
f 107//77 106//77 110//77
f 107//77 110//77 111//77
f 109//78 112//78 108//78
f 109//78 113//78 112//78
f 106//34 108//34 112//34
f 106//34 112//34 110//34
f 107//33 113//33 109//33
f 107//33 111//33 113//33
f 111//79 110//79 114//79
f 111//80 114//80 115//80
f 113//81 116//81 112//81
f 113//82 117//82 116//82
f 110//34 112//34 116//34
f 110//34 116//34 114//34
f 111//33 117//33 113//33
f 111//33 115//33 117//33
f 115//83 114//83 118//83
f 115//83 118//83 119//83
f 117//84 120//84 116//84
f 117//85 121//85 120//85
f 114//34 116//34 120//34
f 114//34 120//34 118//34
f 115//33 121//33 117//33
f 115//33 119//33 121//33
f 119//86 118//86 122//86
f 119//86 122//86 123//86
f 121//87 124//87 120//87
f 121//88 125//88 124//88
f 118//34 120//34 124//34
f 118//34 124//34 122//34
f 119//33 125//33 121//33
f 119//33 123//33 125//33
f 123//89 122//89 126//89
f 123//89 126//89 127//89
f 125//90 128//90 124//90
f 125//91 129//91 128//91
f 122//34 124//34 128//34
f 122//34 128//34 126//34
f 123//33 129//33 125//33
f 123//33 127//33 129//33
f 127//92 126//92 130//92
f 127//93 130//93 131//93
f 129//94 132//94 128//94
f 129//95 133//95 132//95
f 126//34 128//34 132//34
f 126//34 132//34 130//34
f 127//33 133//33 129//33
f 127//33 131//33 133//33
f 131//96 130//96 134//96
f 131//96 134//96 135//96
f 133//97 136//97 132//97
f 133//98 137//98 136//98
f 130//34 132//34 136//34
f 130//34 136//34 134//34
f 131//33 137//33 133//33
f 131//33 135//33 137//33
f 135//99 134//99 138//99
f 135//99 138//99 139//99
f 137//100 140//100 136//100
f 137//101 141//101 140//101
f 134//34 136//34 140//34
f 134//34 140//34 138//34
f 135//33 141//33 137//33
f 135//33 139//33 141//33
f 139//102 138//102 142//102
f 139//103 142//103 143//103
f 141//104 144//104 140//104
f 141//105 145//105 144//105
f 138//34 140//34 144//34
f 138//34 144//34 142//34
f 139//33 145//33 141//33
f 139//33 143//33 145//33
f 143//106 142//106 146//106
f 143//107 146//107 147//107
f 145//108 148//108 144//108
f 145//108 149//108 148//108
f 142//34 144//34 148//34
f 142//34 148//34 146//34
f 143//33 149//33 145//33
f 143//33 147//33 149//33
f 147//109 146//109 150//109
f 147//109 150//109 151//109
f 149//110 152//110 148//110
f 149//110 153//110 152//110
f 146//34 148//34 152//34
f 146//34 152//34 150//34
f 147//33 153//33 149//33
f 147//33 151//33 153//33
f 151//111 150//111 154//111
f 151//111 154//111 155//111
f 153//112 156//112 152//112
f 153//112 157//112 156//112
f 150//34 152//34 156//34
f 150//34 156//34 154//34
f 151//33 157//33 153//33
f 151//33 155//33 157//33
f 155//113 154//113 158//113
f 155//113 158//113 159//113
f 157//114 160//114 156//114
f 157//114 161//114 160//114
f 154//34 156//34 160//34
f 154//34 160//34 158//34
f 155//33 161//33 157//33
f 155//33 159//33 161//33
f 162//3 163//3 164//3
f 162//3 164//3 165//3
f 166//2 167//2 168//2
f 166//2 169//2 167//2
f 166//33 162//33 165//33
f 166//33 165//33 169//33
f 168//34 164//34 163//34
f 168//34 167//34 164//34
f 166//36 163//36 162//36
f 166//36 168//36 163//36
f 169//35 165//35 164//35
f 169//35 164//35 167//35
