o avatar_pivot_point
v 0.042552 3.776654 -6.519690
f 1 1 1
o avatar_carm_mesh
v -0.000000 -0.300000 -6.600000
v -0.000000 -0.300000 -5.350000
v -0.478354 -0.300000 -5.445150
v -0.000000 -3.300000 -6.600000
v -0.000000 -3.300000 -5.100000
v -0.574025 -3.300000 -5.214180
v -0.883883 -0.300000 -5.716120
v -1.060660 -3.300000 -5.539340
v -1.154850 -0.300000 -6.121650
v -1.385821 -3.300000 -6.025970
v -1.250000 -0.300000 -6.600000
v -1.500000 -3.300000 -6.600000
v -1.154850 -0.300000 -7.078350
v -1.385821 -3.300000 -7.174030
v -0.883883 -0.300000 -7.483880
v -1.060660 -3.300000 -7.660660
v -0.478354 -0.300000 -7.754850
v -0.574025 -3.300000 -7.985820
v -0.000000 -0.300000 -7.850000
v -0.000000 -3.300000 -8.100000
v 0.478354 -0.300000 -7.754850
v 0.574024 -3.300000 -7.985820
v 0.883884 -0.300000 -7.483881
v 1.060660 -3.300000 -7.660660
v 1.154850 -0.300000 -7.078351
v 1.385820 -3.300000 -7.174020
v 1.250000 -0.300000 -6.600000
v 1.500000 -3.300000 -6.600000
v 1.154850 -0.300000 -6.121650
v 1.385820 -3.300000 -6.025970
v 0.883883 -0.300000 -5.716120
v 1.060660 -3.300000 -5.539340
v 0.478354 -0.300000 -5.445150
v 0.574025 -3.300000 -5.214180
v -1.000000 9.200000 -10.600000
v 1.000000 9.200000 -10.600000
v 1.000000 9.200000 -8.600000
v -1.000000 9.200000 -8.600000
v -1.000000 8.200000 -10.600000
v 1.000000 8.200000 -10.600000
v 1.000000 8.200000 -8.600000
v -1.000000 8.200000 -8.600000
v 1.500000 7.950000 -8.600000
v -1.500000 7.950000 -8.600000
v -1.500000 7.950000 -4.600000
v 1.500000 7.950000 -4.600000
v 1.500000 9.450000 -8.600000
v -1.500000 9.450000 -8.600000
v -1.499999 9.450000 -4.600000
v 1.500001 9.450000 -4.600000
v -1.000000 9.200000 -10.600000
v 1.000000 9.200000 -10.600000
v 1.000000 9.084710 -11.770540
v -1.000000 9.084710 -11.770540
v -1.000000 8.200000 -10.600000
v 1.000000 8.200000 -10.600000
v 1.000000 8.103930 -11.575453
v -1.000000 8.103930 -11.575453
v 1.000000 8.743280 -12.896100
v -1.000000 8.743280 -12.896100
v 1.000000 7.819400 -12.513420
v -1.000000 7.819400 -12.513420
v 1.000000 8.188820 -13.933420
v -1.000000 8.188820 -13.933420
v 1.000000 7.357350 -13.377851
v -1.000000 7.357350 -13.377851
v 1.000000 7.442640 -14.842641
v -1.000000 7.442640 -14.842640
v 1.000000 6.735530 -14.135530
v -1.000000 6.735530 -14.135530
v 1.000000 6.533420 -15.588820
v -1.000000 6.533420 -15.588820
v 1.000000 5.977850 -14.757351
v -1.000000 5.977850 -14.757350
v 1.000000 5.496100 -16.143280
v -1.000000 5.496100 -16.143280
v 1.000000 5.113420 -15.219400
v -1.000000 5.113420 -15.219400
v 1.000000 4.370540 -16.484711
v -1.000000 4.370540 -16.484711
v 1.000000 4.175452 -15.503931
v -1.000000 4.175452 -15.503930
v 1.000000 3.199999 -16.600000
v -1.000000 3.200000 -16.600000
v 1.000000 3.200000 -15.600000
v -1.000000 3.200000 -15.600000
v 1.000000 2.029460 -16.484711
v -1.000000 2.029460 -16.484711
v 1.000000 2.224548 -15.503931
v -1.000000 2.224548 -15.503930
v 1.000000 0.903900 -16.143280
v -1.000000 0.903900 -16.143280
v 1.000000 1.286580 -15.219400
v -1.000000 1.286580 -15.219400
v 1.000000 -0.133420 -15.588820
v -1.000000 -0.133420 -15.588820
v 1.000000 0.422150 -14.757351
v -1.000000 0.422150 -14.757350
v 1.000000 -1.042640 -14.842641
v -1.000000 -1.042640 -14.842640
v 1.000000 -0.335530 -14.135530
v -1.000000 -0.335530 -14.135530
v 1.000000 -1.788820 -13.933420
v -1.000000 -1.788820 -13.933420
v 1.000000 -0.957350 -13.377851
v -1.000000 -0.957350 -13.377851
v 1.000000 -2.343280 -12.896100
v -1.000000 -2.343280 -12.896100
v 1.000000 -1.419400 -12.513420
v -1.000000 -1.419400 -12.513420
v 1.000000 -2.684710 -11.770540
v -1.000000 -2.684710 -11.770540
v 1.000000 -1.703930 -11.575453
v -1.000000 -1.703930 -11.575453
v 1.000000 -2.800000 -10.600000
v -1.000000 -2.800000 -10.600000
v 1.000000 -1.800000 -10.600000
v -1.000000 -1.800000 -10.600000
v -1.000000 -2.800000 -10.600000
v 1.000000 -2.800000 -10.600000
v 1.000000 -2.800000 -6.600000
v -1.000000 -2.800000 -6.600000
v -1.000000 -1.800000 -10.600000
v 1.000000 -1.800000 -10.600000
v 1.000000 -1.800000 -6.600000
v -1.000000 -1.800000 -6.600000
vn 0.000000 1.000000 0.000000
vn 0.000000 -1.000000 -0.000000
vn -0.194441 0.081460 0.977526
vn -0.553725 0.081461 0.828706
vn -0.553730 0.081462 0.828702
vn -0.828703 0.081461 0.553729
vn -0.828706 0.081462 0.553725
vn -0.977526 0.081461 0.194439
vn -0.977526 0.081461 0.194442
vn -0.977526 0.081461 -0.194439
vn -0.977526 0.081461 -0.194443
vn -0.828703 0.081462 -0.553729
vn -0.828706 0.081461 -0.553725
vn -0.553725 0.081462 -0.828706
vn -0.553730 0.081460 -0.828702
vn -0.194441 0.081460 -0.977526
vn -0.194441 0.081461 -0.977526
vn 0.194441 0.081460 -0.977526
vn 0.553725 0.081460 -0.828706
vn 0.553729 0.081461 -0.828703
vn 0.828708 0.081461 -0.553721
vn 0.828707 0.081460 -0.553723
vn 0.977526 0.081460 -0.194442
vn 0.977526 0.081460 0.194439
vn 0.977526 0.081461 0.194442
vn 0.828703 0.081462 0.553729
vn 0.828706 0.081461 0.553724
vn 0.553725 0.081461 0.828705
vn 0.553730 0.081460 0.828703
vn 0.194441 0.081460 0.977526
vn -1.000000 0.000000 0.000000
vn 1.000000 -0.000000 0.000000
vn -0.000000 0.000000 -1.000000
vn -0.000000 0.000000 1.000000
vn 0.000000 0.995185 -0.098018
vn 0.000000 -0.995185 0.098013
vn 0.000000 0.956942 -0.290281
vn 0.000000 -0.956940 0.290286
vn -0.000000 -0.956940 0.290285
vn 0.000000 0.881921 -0.471398
vn -0.000000 -0.881920 0.471399
vn 0.000000 0.773010 -0.634394
vn -0.000000 -0.773006 0.634398
vn -0.000000 0.634394 -0.773010
vn 0.000000 0.634395 -0.773009
vn -0.000000 -0.634399 0.773006
vn 0.000000 -0.634398 0.773007
vn 0.000000 0.471397 -0.881921
vn 0.000000 -0.471398 0.881920
vn 0.000000 -0.471399 0.881920
vn 0.000000 0.290281 -0.956941
vn 0.000000 -0.290286 0.956940
vn 0.000000 -0.290285 0.956940
vn 0.000000 0.098018 -0.995185
vn 0.000000 -0.098013 0.995185
vn 0.000000 -0.098014 0.995185
vn -0.000000 -0.098019 -0.995185
vn 0.000000 0.098013 0.995185
vn 0.000000 0.098014 0.995185
vn -0.000000 -0.290281 -0.956941
vn 0.000000 0.290286 0.956940
vn 0.000000 0.290285 0.956940
vn -0.000000 -0.471397 -0.881921
vn 0.000000 0.471398 0.881920
vn 0.000000 0.471399 0.881920
vn -0.000000 -0.634394 -0.773010
vn -0.000000 -0.634395 -0.773009
vn 0.000000 0.634398 0.773006
vn 0.000000 0.634398 0.773007
vn -0.000000 -0.773010 -0.634394
vn -0.000000 -0.773009 -0.634395
vn 0.000000 0.773006 0.634398
vn -0.000000 -0.881921 -0.471397
vn 0.000000 0.881920 0.471399
vn 0.000000 0.881920 0.471398
vn -0.000000 -0.956942 -0.290281
vn 0.000000 0.956940 0.290285
vn -0.000000 -0.995185 -0.098019
vn 0.000000 0.995185 0.098013
usemtl 
s off
f 2//1 4//1 3//1
f 5//2 6//2 7//2
f 3//3 7//3 6//3
f 3//3 4//3 7//3
f 2//1 8//1 4//1
f 5//2 7//2 9//2
f 4//4 9//4 7//4
f 4//5 8//5 9//5
f 2//1 10//1 8//1
f 5//2 9//2 11//2
f 8//6 11//6 9//6
f 8//7 10//7 11//7
f 2//1 12//1 10//1
f 5//2 11//2 13//2
f 10//8 13//8 11//8
f 10//9 12//9 13//9
f 2//1 14//1 12//1
f 5//2 13//2 15//2
f 12//10 15//10 13//10
f 12//11 14//11 15//11
f 2//1 16//1 14//1
f 5//2 15//2 17//2
f 14//12 17//12 15//12
f 14//13 16//13 17//13
f 2//1 18//1 16//1
f 5//2 17//2 19//2
f 16//14 19//14 17//14
f 16//15 18//15 19//15
f 2//1 20//1 18//1
f 5//2 19//2 21//2
f 18//16 21//16 19//16
f 18//17 20//17 21//17
f 2//1 22//1 20//1
f 5//2 21//2 23//2
f 20//18 23//18 21//18
f 20//18 22//18 23//18
f 2//1 24//1 22//1
f 5//2 23//2 25//2
f 22//19 25//19 23//19
f 22//20 24//20 25//20
f 2//1 26//1 24//1
f 5//2 25//2 27//2
f 24//21 27//21 25//21
f 24//22 26//22 27//22
f 2//1 28//1 26//1
f 5//2 27//2 29//2
f 26//23 29//23 27//23
f 26//23 28//23 29//23
f 2//1 30//1 28//1
f 5//2 29//2 31//2
f 28//24 31//24 29//24
f 28//25 30//25 31//25
f 2//1 32//1 30//1
f 5//2 31//2 33//2
f 30//26 33//26 31//26
f 30//27 32//27 33//27
f 2//1 34//1 32//1
f 5//2 33//2 35//2
f 32//28 35//28 33//28
f 32//29 34//29 35//29
f 2//1 3//1 34//1
f 5//2 35//2 6//2
f 34//30 6//30 35//30
f 34//30 3//30 6//30
f 36//1 38//1 37//1
f 36//1 39//1 38//1
f 40//2 41//2 42//2
f 40//2 42//2 43//2
f 40//31 39//31 36//31
f 40//31 43//31 39//31
f 41//32 37//32 38//32
f 41//32 38//32 42//32
f 40//33 36//33 37//33
f 40//33 37//33 41//33
f 43//34 38//34 39//34
f 43//34 42//34 38//34
f 44//2 46//2 45//2
f 44//2 47//2 46//2
f 48//1 49//1 50//1
f 48//1 50//1 51//1
f 48//32 47//32 44//32
f 48//32 51//32 47//32
f 49//31 45//31 46//31
f 49//31 46//31 50//31
f 48//33 44//33 45//33
f 48//33 45//33 49//33
f 51//34 46//34 47//34
f 51//34 50//34 46//34
f 52//35 53//35 54//35
f 52//35 54//35 55//35
f 56//36 58//36 57//36
f 56//36 59//36 58//36
f 53//32 57//32 58//32
f 53//32 58//32 54//32
f 52//31 59//31 56//31
f 52//31 55//31 59//31
f 55//37 54//37 60//37
f 55//37 60//37 61//37
f 59//38 62//38 58//38
f 59//39 63//39 62//39
f 54//32 58//32 62//32
f 54//32 62//32 60//32
f 55//31 63//31 59//31
f 55//31 61//31 63//31
f 61//40 60//40 64//40
f 61//40 64//40 65//40
f 63//41 66//41 62//41
f 63//41 67//41 66//41
f 60//32 62//32 66//32
f 60//32 66//32 64//32
f 61//31 67//31 63//31
f 61//31 65//31 67//31
f 65//42 64//42 68//42
f 65//42 68//42 69//42
f 67//43 70//43 66//43
f 67//43 71//43 70//43
f 64//32 66//32 70//32
f 64//32 70//32 68//32
f 65//31 71//31 67//31
f 65//31 69//31 71//31
f 69//44 68//44 72//44
f 69//45 72//45 73//45
f 71//46 74//46 70//46
f 71//47 75//47 74//47
f 68//32 70//32 74//32
f 68//32 74//32 72//32
f 69//31 75//31 71//31
f 69//31 73//31 75//31
f 73//48 72//48 76//48
f 73//48 76//48 77//48
f 75//49 78//49 74//49
f 75//50 79//50 78//50
f 72//32 74//32 78//32
f 72//32 78//32 76//32
f 73//31 79//31 75//31
f 73//31 77//31 79//31
f 77//51 76//51 80//51
f 77//51 80//51 81//51
f 79//52 82//52 78//52
f 79//53 83//53 82//53
f 76//32 78//32 82//32
f 76//32 82//32 80//32
f 77//31 83//31 79//31
f 77//31 81//31 83//31
f 81//54 80//54 84//54
f 81//54 84//54 85//54
f 83//55 86//55 82//55
f 83//56 87//56 86//56
f 80//32 82//32 86//32
f 80//32 86//32 84//32
f 81//31 87//31 83//31
f 81//31 85//31 87//31
f 85//57 84//57 88//57
f 85//57 88//57 89//57
f 87//58 90//58 86//58
f 87//59 91//59 90//59
f 84//32 86//32 90//32
f 84//32 90//32 88//32
f 85//31 91//31 87//31
f 85//31 89//31 91//31
f 89//60 88//60 92//60
f 89//60 92//60 93//60
f 91//61 94//61 90//61
f 91//62 95//62 94//62
f 88//32 90//32 94//32
f 88//32 94//32 92//32
f 89//31 95//31 91//31
f 89//31 93//31 95//31
f 93//63 92//63 96//63
f 93//63 96//63 97//63
f 95//64 98//64 94//64
f 95//65 99//65 98//65
f 92//32 94//32 98//32
f 92//32 98//32 96//32
f 93//31 99//31 95//31
f 93//31 97//31 99//31
f 97//66 96//66 100//66
f 97//67 100//67 101//67
f 99//68 102//68 98//68
f 99//69 103//69 102//69
f 96//32 98//32 102//32
f 96//32 102//32 100//32
f 97//31 103//31 99//31
f 97//31 101//31 103//31
f 101//70 100//70 104//70
f 101//71 104//71 105//71
f 103//72 106//72 102//72
f 103//72 107//72 106//72
f 100//32 102//32 106//32
f 100//32 106//32 104//32
f 101//31 107//31 103//31
f 101//31 105//31 107//31
f 105//73 104//73 108//73
f 105//73 108//73 109//73
f 107//74 110//74 106//74
f 107//75 111//75 110//75
f 104//32 106//32 110//32
f 104//32 110//32 108//32
f 105//31 111//31 107//31
f 105//31 109//31 111//31
f 109//76 108//76 112//76
f 109//76 112//76 113//76
f 111//77 114//77 110//77
f 111//77 115//77 114//77
f 108//32 110//32 114//32
f 108//32 114//32 112//32
f 109//31 115//31 111//31
f 109//31 113//31 115//31
f 113//78 112//78 116//78
f 113//78 116//78 117//78
f 115//79 118//79 114//79
f 115//79 119//79 118//79
f 112//32 114//32 118//32
f 112//32 118//32 116//32
f 113//31 119//31 115//31
f 113//31 117//31 119//31
f 120//2 121//2 122//2
f 120//2 122//2 123//2
f 124//1 126//1 125//1
f 124//1 127//1 126//1
f 124//31 120//31 123//31
f 124//31 123//31 127//31
f 125//32 122//32 121//32
f 125//32 126//32 122//32
f 124//33 121//33 120//33
f 124//33 125//33 121//33
f 127//34 123//34 122//34
f 127//34 122//34 126//34
o avatar_table_mesh
v -0.000000 3.500000 -0.000000
v -0.000000 3.500000 -0.250000
v 0.095671 3.500000 -0.230970
v 0.000000 -4.000000 0.000000
v 0.000000 -4.000000 -1.000000
v 0.382683 -4.000000 -0.923880
v 0.176777 3.500000 -0.176780
v 0.707107 -4.000000 -0.707110
v 0.230970 3.500000 -0.095670
v 0.923880 -4.000000 -0.382680
v 0.250000 3.500000 0.000000
v 1.000000 -4.000000 0.000000
v 0.230970 3.500000 0.095670
v 0.923880 -4.000000 0.382680
v 0.176777 3.500000 0.176780
v 0.707107 -4.000000 0.707110
v 0.095671 3.500000 0.230970
v 0.382683 -4.000000 0.923880
v -0.000000 3.500000 0.250000
v 0.000000 -4.000000 1.000000
v -0.095671 3.500000 0.230970
v -0.382683 -4.000000 0.923880
v -0.176777 3.500000 0.176780
v -0.707107 -4.000000 0.707110
v -0.230970 3.500000 0.095670
v -0.923880 -4.000000 0.382680
v -0.250000 3.500000 -0.000000
v -1.000000 -4.000000 -0.000000
v -0.230970 3.500000 -0.095670
v -0.923879 -4.000000 -0.382680
v -0.176777 3.500000 -0.176780
v -0.707107 -4.000000 -0.707110
v -0.095671 3.500000 -0.230970
v -0.382683 -4.000000 -0.923880
v -3.000001 3.500000 11.000000
v 2.999999 3.500000 11.000000
v 3.000000 3.500000 -11.000000
v -3.000000 3.500000 -11.000000
v -3.000001 4.000000 11.000000
v 2.999999 4.000000 11.000000
v 3.000000 4.000000 -11.000000
v -3.000000 4.000000 -11.000000
vn 0.194159 0.097610 -0.976102
vn 0.194154 0.097610 -0.976103
vn 0.552910 0.097610 -0.827504
vn 0.552898 0.097610 -0.827512
vn 0.827504 0.097610 -0.552909
vn 0.827513 0.097611 -0.552896
vn 0.976102 0.097610 -0.194159
vn 0.976102 0.097610 -0.194160
vn 0.976102 0.097610 0.194159
vn 0.976102 0.097610 0.194160
vn 0.827504 0.097610 0.552909
vn 0.827513 0.097610 0.552896
vn 0.552910 0.097610 0.827504
vn 0.552897 0.097611 0.827512
vn 0.194159 0.097610 0.976102
vn 0.194154 0.097610 0.976103
vn -0.194159 0.097610 0.976102
vn -0.194154 0.097610 0.976103
vn -0.552910 0.097610 0.827504
vn -0.552898 0.097610 0.827512
vn -0.827505 0.097610 0.552909
vn -0.827513 0.097610 0.552896
vn -0.976102 0.097610 0.194159
vn -0.976102 0.097610 0.194160
vn -0.976101 0.097610 -0.194162
vn -0.976102 0.097610 -0.194160
vn -0.827506 0.097610 -0.552908
vn -0.827513 0.097610 -0.552896
vn -0.552910 0.097610 -0.827504
vn -0.552898 0.097610 -0.827512
vn -0.194159 0.097610 -0.976102
vn -0.194154 0.097610 -0.976103
usemtl 
s off
f 128//1 130//1 129//1
f 131//2 132//2 133//2
f 129//80 133//80 132//80
f 129//81 130//81 133//81
f 128//1 134//1 130//1
f 131//2 133//2 135//2
f 130//82 135//82 133//82
f 130//83 134//83 135//83
f 128//1 136//1 134//1
f 131//2 135//2 137//2
f 134//84 137//84 135//84
f 134//85 136//85 137//85
f 128//1 138//1 136//1
f 131//2 137//2 139//2
f 136//86 139//86 137//86
f 136//87 138//87 139//87
f 128//1 140//1 138//1
f 131//2 139//2 141//2
f 138//88 141//88 139//88
f 138//89 140//89 141//89
f 128//1 142//1 140//1
f 131//2 141//2 143//2
f 140//90 143//90 141//90
f 140//91 142//91 143//91
f 128//1 144//1 142//1
f 131//2 143//2 145//2
f 142//92 145//92 143//92
f 142//93 144//93 145//93
f 128//1 146//1 144//1
f 131//2 145//2 147//2
f 144//94 147//94 145//94
f 144//95 146//95 147//95
f 128//1 148//1 146//1
f 131//2 147//2 149//2
f 146//96 149//96 147//96
f 146//97 148//97 149//97
f 128//1 150//1 148//1
f 131//2 149//2 151//2
f 148//98 151//98 149//98
f 148//99 150//99 151//99
f 128//1 152//1 150//1
f 131//2 151//2 153//2
f 150//100 153//100 151//100
f 150//101 152//101 153//101
f 128//1 154//1 152//1
f 131//2 153//2 155//2
f 152//102 155//102 153//102
f 152//103 154//103 155//103
f 128//1 156//1 154//1
f 131//2 155//2 157//2
f 154//104 157//104 155//104
f 154//105 156//105 157//105
f 128//1 158//1 156//1
f 131//2 157//2 159//2
f 156//106 159//106 157//106
f 156//107 158//107 159//107
f 128//1 160//1 158//1
f 131//2 159//2 161//2
f 158//108 161//108 159//108
f 158//109 160//109 161//109
f 128//1 129//1 160//1
f 131//2 161//2 132//2
f 160//110 132//110 161//110
f 160//111 129//111 132//111
f 162//2 164//2 163//2
f 162//2 165//2 164//2
f 166//1 167//1 168//1
f 166//1 168//1 169//1
f 166//31 165//31 162//31
f 166//31 169//31 165//31
f 167//32 163//32 164//32
f 167//32 164//32 168//32
f 166//34 162//34 163//34
f 166//34 163//34 167//34
f 169//33 164//33 165//33
f 169//33 168//33 164//33
